<?xml version="1.0" encoding="UTF-8"?>
<!DOCTYPE svg PUBLIC "-//W3C//DTD SVG 1.1//EN" "http://www.w3.org/Graphics/SVG/1.1/DTD/svg11.dtd">
<!-- Creator: CorelDRAW X5 -->
<svg xmlns="http://www.w3.org/2000/svg" xml:space="preserve" width="141.068mm" height="96.2374mm" style="shape-rendering:geometricPrecision; text-rendering:geometricPrecision; image-rendering:optimizeQuality; fill-rule:evenodd; clip-rule:evenodd"
viewBox="0 0 143.505 97.9006"
 xmlns:xlink="http://www.w3.org/1999/xlink">
 <defs>
  <style type="text/css">
   <![CDATA[
    .fil1 {fill:black}
    .fil2 {fill:#187A22}
    .fil0 {fill:#F08800}
    .fil3 {fill:#1C2069;fill-rule:nonzero}
   ]]>
  </style>
 </defs>
 <g id="Layer_x0020_1">
  <metadata id="CorelCorpID_0Corel-Layer"/>
  <path class="fil0" d="M24.7989 32.631c0.527766,-0.0225837 4.6327,-0.498061 4.79486,-0.607317 0.172633,-1.35014 0.193589,-3.70942 0.42207,-5.37695 0.259509,-1.89306 0.371918,-3.1667 0.761741,-5.09516 0.340077,-1.68269 0.632546,-3.20423 1.13661,-4.72019 0.484735,-1.45766 1.06123,-2.88552 1.75969,-4.0971 3.40993,-5.91509 8.82248,-7.01802 16.0417,-3.90473 2.94198,1.26865 6.43278,3.61186 8.94364,5.61234l3.96343 3.35754c0.255846,0.204067 0.498366,0.479648 0.740785,0.723491l1.46428 1.37801c0.508437,0.508437 0.96123,0.952481 1.4659,1.46244l2.11015 2.28248c1.28066,1.32613 4.02742,4.97471 4.64766,5.60187 0.486871,0.492263 0.939155,1.0534 1.87495,1.0534 1.28116,-1.9132 -2.69325,-6.51793 -3.84868,-7.95108l-4.13983 -4.73158c-0.155339,-0.154525 -0.287484,-0.26785 -0.42675,-0.434481 -0.967333,-1.15726 -3.26334,-3.39731 -4.43891,-4.4325l-1.37984 -1.29022c-0.511184,-0.518407 -1.03203,-0.889613 -1.41992,-1.25014l-1.4483 -1.22165c-1.10507,-0.862859 -3.87686,-3.06772 -5.0916,-3.77981 -1.13712,-0.666625 -1.90476,-1.28788 -3.32946,-2.01056l-2.41238 -1.20507c-3.86292,-1.86946 -9.66967,-3.2255 -13.9935,-0.272123 -0.768353,0.524917 -1.24271,1.00101 -1.8895,1.64189 -2.27922,2.25877 -3.82345,6.44824 -4.55203,9.6594 -0.454928,2.00527 -0.779441,3.8907 -1.09409,6.05456 -0.684529,4.70625 -0.662657,8.81353 -0.662657,13.5532z"/>
  <path class="fil0" d="M25.1853 37.4499c-0.164088,0.961535 1.1536,8.60498 1.44383,10.0556 0.209662,1.0478 0.461643,2.10628 0.689005,3.18694 0.303659,1.44342 1.15421,4.65305 1.60425,6.06127 0.324309,1.01474 0.568966,1.94799 0.903448,2.9724 1.0888,3.33424 2.84086,7.97508 4.30341,11.1138 0.539973,1.15868 1.91218,4.07859 2.55938,5.19231l1.41158 2.46426c0.752585,1.25238 2.19204,3.91318 3.83851,3.91318 0.92827,-1.38625 -0.912909,-4.02193 -1.57811,-5.14002 -3.58246,-6.02119 -6.45659,-14.3405 -8.15453,-21.1297 -1.19643,-4.78367 -1.53477,-7.58984 -2.20303,-12.439 -0.267037,-1.93772 -0.320342,-4.07248 -0.378022,-5.99494 -0.0133264,-0.442619 -0.0890122,-0.454522 -0.0890122,-0.919928 -0.682901,0.0663268 -4.00423,0.430615 -4.35071,0.663776z"/>
  <path class="fil1" d="M79.7496 53.5561c-0.510777,0 -2.08339,-0.27548 -2.27871,-0.649636 -0.542415,-1.03915 0.472019,-4.49771 0.929999,-5.52231 1.4302,-3.19966 4.88611,-7.22087 8.34425,-7.40958 0.409354,-0.0223802 0.828576,0.148015 1.18686,0.231432 0.0121057,0.546586 0.172226,1.10172 0.172226,1.72267 0,3.03781 -1.36133,5.52425 -2.52489,7.46614 -0.507522,0.846989 -1.3949,2.51136 -2.07546,2.92011 -0.972928,0.584327 -2.2485,1.24119 -3.75428,1.24119zm-50.1559 -21.5324c-0.162155,0.109256 -4.26709,0.584734 -4.79486,0.607317 -1.84087,0.113732 -8.15412,1.53986 -9.69816,1.925 -3.35052,0.835697 -5.7096,1.70273 -8.79532,2.91828 -1.06764,0.420646 -2.90617,1.3714 -3.84197,1.92877 -1.14637,0.682698 -2.79142,1.73731 -2.40618,3.32285 0.843327,3.47107 3.86882,4.77319 4.33962,4.12925 0.354421,-0.484633 -0.371613,-1.96173 -0.527562,-2.25653 0.248725,-0.0664285 0.305286,-0.169683 0.533463,-0.327768 0.640277,-0.443535 0.997852,-0.620949 1.65613,-1.01392 2.71919,-1.62348 7.17937,-2.97372 10.3095,-3.90189 1.91768,-0.568661 3.76455,-0.953702 5.69525,-1.36743 0.532344,-0.114139 0.996326,-0.182093 1.52185,-0.286873 0.403047,-0.0803653 1.16519,-0.242723 1.59968,-0.250862 0.346486,-0.233161 3.66781,-0.59745 4.35071,-0.663776l0.585853 -0.0388602c0.257474,-0.0311288 0.352895,-0.0519831 0.703145,-0.075584 0.375479,-0.0252286 0.985848,-0.10244 1.3186,-0.145573 0.859807,-0.111189 3.30138,-0.287484 4.1085,-0.284025 0.500096,0.00203456 0.951362,0.0225837 1.41646,-0.0478122 1.80028,-0.27253 12.074,0.222073 14.6057,0.222073 -0.0630715,0.0942003 -2.2249,1.98299 -2.71991,2.62011 -1.40649,1.81086 -2.4723,3.36558 -3.10332,5.85425 -0.952379,3.75672 0.568457,7.24895 2.86812,9.98411 0.187689,0.223192 0.218309,0.296538 0.434481,0.512914 2.62449,2.62652 5.96107,3.12519 9.51474,2.23415 0.475071,-0.119124 0.968554,-0.229499 1.41138,-0.39735 2.89366,-1.09734 4.30707,-2.23639 6.43075,-4.33545 0.186366,-0.18423 0.258797,-0.257576 0.408947,-0.452385l1.20558 -1.55054 -0.308135 3.22316c-0.268664,1.77872 0.118819,4.86159 0.601926,6.56025 0.191656,0.673848 0.412406,1.33854 0.710978,1.95908 0.298877,0.621152 0.575171,1.21616 0.938544,1.81758 0.671406,1.11118 3.20952,4.63087 4.34796,4.70381 1.2006,0.0770082 3.73607,-2.51838 4.53565,-3.47493 1.51789,-1.81585 3.04228,-3.62254 4.46729,-5.52384 0.286975,-0.382803 0.480361,-0.65635 0.762453,-1.04627l1.49764 -2.11981c0.569983,-0.842411 1.11209,-1.11423 1.80303,-1.81442 0.738241,-0.748211 1.51127,-1.48167 2.16386,-2.31493 0.118615,-0.151473 0.310474,-0.409151 0.441907,-0.505487 -0.194301,0.833968 -0.490025,3.91694 -0.519628,4.90655 -0.0508641,1.7011 0.00691752,3.49141 0.414441,5.1035 0.101423,0.401318 0.144657,0.478733 0.3061,0.813724 0.451165,0.936306 1.47384,2.93099 2.64137,2.95704 0.429802,-0.641905 0.344757,-0.963875 0.344553,-1.98105 -0.00142419,-5.56992 -0.337738,-14.3157 6.80195,-14.65 0.711894,-0.0332651 1.45492,-0.000915554 2.13222,0.117394 2.34158,0.408846 4.6737,1.63579 5.8982,3.66221 0.279753,0.462965 0.507115,1.16336 0.682189,1.72938 0.792259,2.5608 0.750652,5.54073 0.412304,8.53103 -0.306405,2.7078 -1.08666,5.37939 -1.85491,7.7055 -0.867131,2.6256 -1.94484,5.08966 -3.16141,7.51873 -0.581377,1.16092 -0.701518,1.15695 -0.0229906,2.66263 0.371104,0.823388 1.3659,2.42439 2.37637,2.44687 0.421969,-0.797447 0.927558,-1.76793 1.29083,-2.58502l1.17761 -2.69824c0.206712,-0.461032 0.374258,-0.909552 0.536006,-1.35878 3.26883,-9.07599 4.82771,-17.6542 -1.03905,-26.3301 -0.509048,-0.752789 -1.12959,-1.46336 -1.7716,-2.10425 -1.35258,-1.35044 -2.81828,-2.38634 -4.64654,-3.10515 -1.44474,-0.567847 -3.34991,-0.784935 -5.0152,-0.656655 -0.592974,0.0455742 -1.10558,0.293486 -1.64281,0.338145 0.500401,-2.14769 0.652383,-3.32753 -0.516779,-5.08163l-0.773338 -1.12145c-0.0571712,-0.0866724 -0.0635801,-0.108137 -0.141097,-0.203456 -0.844853,-1.03905 -1.32013,-0.678222 -1.8423,0.376801l-1.20517 2.58461c-0.183212,0.359202 -0.40854,1.08636 -0.689107,1.29185 -0.215257,-2.58685 -2.85226,-6.96787 -5.40512,-7.60042 -4.44878,-1.10233 -12.0558,6.51294 -10.9566,14.4019 0.227668,1.63365 1.13447,3.41797 1.90801,4.55173 0.775474,1.13661 2.13171,2.70821 3.51532,3.03058l-0.763877 0.958686c-0.250353,0.314238 -0.499079,0.657266 -0.766318,0.956347l-1.64383 1.88746c-0.897039,1.1245 -2.49275,2.56711 -3.8025,3.26008 -0.791852,-1.18239 -0.955635,-0.489007 -1.35482,-2.77942 -0.218309,-1.25288 -0.217088,-2.56406 -0.19898,-4.02823 0.00701925,-0.569068 0.124922,-1.33539 0.173345,-1.89387 0.165105,-1.90751 0.571306,-3.62224 0.784833,-5.50258 0.421969,-3.71603 1.18483,-7.26105 -1.66275,-10.0655 -2.23009,-2.19621 -1.96895,2.92713 -5.42659,7.11039 -0.166529,0.20132 -0.294198,0.360423 -0.459811,0.573849 -0.841597,1.08422 -2.16722,2.24168 -3.29243,2.99498 -2.82438,1.89072 -7.88648,3.55377 -11.3296,1.64688 -0.624611,-0.345978 -0.8123,-0.473952 -0.933458,-1.21982 -0.421562,-2.59539 0.811181,-5.01561 2.20221,-7.04274 0.183518,-0.267342 0.251777,-0.343129 0.445061,-0.588396 2.15562,-2.73567 5.2391,-4.8562 8.46562,-6.17653 0.399181,-0.163375 1.83212,-0.677205 2.1486,-0.952583 0.541906,-0.471612 -0.0829085,-1.21586 -0.528478,-2.10699 -0.289213,-0.578426 -0.659809,-1.64912 -1.14963,-2.03711 -0.862452,-0.68341 -1.33783,-0.575782 -2.5252,-0.575476 -1.4068,0.000305185 -2.8136,0 -4.2204,0 -2.69122,0 -5.48783,-0.173853 -8.1823,-0.172226 -1.34352,0.000712097 -2.6604,-0.10244 -3.9616,-0.172734 -2.72784,-0.147302 -5.66484,0.050152 -8.3584,0.0831119 -0.465406,0.00569678 -0.507929,0.0808739 -0.941494,0.0921657 -1.00711,0.0261441 -2.01727,0.169683 -3.04544,0.169683z"/>
  <path class="fil2" d="M79.6635 14.1087c0,3.03028 0.327972,4.34613 1.6364,6.97662 0.674763,1.35665 2.0248,3.37168 3.0372,4.36994 0.68046,0.670897 0.216885,0.358083 1.37638,1.37984 0.184331,0.16246 0.290637,0.309762 0.474969,0.472324 0.183314,0.161748 0.279956,0.21485 0.473748,0.387584 1.49764,1.33549 3.2554,2.35175 4.9684,3.38623 0.240282,0.145166 0.961738,0.597958 1.29683,0.597958 0.710368,0 -0.0474053,-1.82093 -0.199998,-2.12541 -0.265205,-0.529088 -0.867945,-1.40151 -1.28228,-1.81849 -0.307626,-0.309559 -0.543737,-0.421562 -0.929796,-0.62044 -0.700907,-0.361237 -2.2544,-1.33172 -2.89396,-1.75705 -1.45553,-0.968045 -4.01857,-2.95266 -4.62395,-4.67817 -0.121158,-0.345367 -0.255033,-0.92003 -0.297758,-1.25248 -0.408947,-3.18267 0.98066,-6.94214 2.77067,-9.41647 0.726034,-1.00355 1.28116,-1.58838 2.28827,-2.36274 3.24055,-2.49143 7.71893,-2.6842 11.6186,-1.53925 2.08054,0.610776 4.35509,1.73874 6.08843,3.04137 0.280668,0.210984 0.526647,0.372122 0.785647,0.592363 0.886561,0.753602 1.20314,1.0301 2.02917,1.84657 0.280668,0.277413 0.388297,0.470188 0.644652,0.733562 1.60141,1.64484 3.14615,4.43413 3.86689,6.64082 1.70222,5.21092 1.14342,10.644 1.15116,15.9027l-0.082705 2.84574c-0.00579851,0.464287 -0.0794497,0.50742 -0.0923692,0.941087 -0.315459,10.5458 -0.434481,18.1174 2.87738,28.135 0.526545,1.59255 1.77272,4.53352 2.6077,6.17755 0.950955,1.8721 3.89385,6.78252 5.13076,8.04721 1.59632,1.63192 1.96447,-0.175481 -0.38789,-3.31583 -5.52954,-7.38191 -7.38292,-17.6034 -7.38292,-27.2413 0,-7.28008 0.979948,-17.4508 -0.00437431,-24.5425 -0.779238,-5.61428 -2.87779,-10.1231 -6.27053,-14.659 -1.02247,-1.36692 -2.07159,-2.50709 -3.26354,-3.71298 -3.54421,-3.58572 -9.24791,-6.61009 -14.664,-6.61009 -3.67758,0 -6.73451,1.42613 -9.02319,3.89629 -0.239265,0.25839 -0.466424,0.571306 -0.674967,0.875269 -0.86469,1.26021 -1.08992,1.68381 -1.75573,3.15368 -0.581071,1.28269 -1.29327,3.41522 -1.29327,5.25263z"/>
  <path class="fil3" d="M21.1577 97.9006c-1.10253,0 -2.02124,-0.410575 -2.75622,-1.23172 -0.752178,0.82115 -1.67658,1.23172 -2.77331,1.23172 -1.01637,0 -1.88624,-0.356049 -2.60984,-1.06804 -0.723491,-0.711996 -1.08524,-1.57333 -1.08524,-2.5839l0 -3.66913c0.597246,0 1.0594,0.163579 1.38676,0.49094 0.32726,0.32726 0.49094,0.717692 0.49094,1.1713l0 2.00689c0,0.505284 0.1766,0.940274 0.529699,1.30487 0.353099,0.364594 0.78229,0.546891 1.28768,0.546891 0.505284,0 0.935899,-0.182297 1.29195,-0.546891 0.355947,-0.364594 0.533971,-0.799584 0.533971,-1.30487l0 -3.66913c0.597144,0 1.0594,0.163579 1.38666,0.49094 0.327361,0.32726 0.49094,0.717692 0.49094,1.1713l0 2.00689c0,0.505284 0.178024,0.940274 0.534073,1.30487 0.355947,0.364594 0.786664,0.546891 1.29195,0.546891 0.505284,0 0.934475,-0.182297 1.28768,-0.546891 0.353099,-0.364594 0.529699,-0.799584 0.529699,-1.30487l0 -2.00689c0,-0.453606 0.163579,-0.844039 0.49094,-1.1713 0.32726,-0.327361 0.789512,-0.49094 1.38666,-0.49094l0 3.66913c0,1.01637 -0.361745,1.87902 -1.08524,2.58817 -0.723491,0.709147 -1.59337,1.06377 -2.60974,1.06377z"/>
  <path id="1" class="fil3" d="M26.0068 97.4096c-0.32726,-0.327361 -0.49094,-0.717794 -0.49094,-1.1714l0 -5.65873c0.597246,0 1.0594,0.163579 1.38676,0.49094 0.32726,0.32726 0.49094,0.717692 0.49094,1.1713l0 5.65883c-0.597144,0 -1.0594,-0.163681 -1.38676,-0.49094z"/>
  <path id="12" class="fil3" d="M33.5346 97.9006l0 -0.818302c0,-0.505284 -0.1766,-0.943122 -0.529699,-1.31341 -0.353099,-0.370392 -0.782392,-0.555538 -1.28768,-0.555538l-1.69672 0 0 2.68725 -1.8777 0 0 -9.03509c0.597246,0 1.0594,0.163681 1.38676,0.49094 0.32726,0.32726 0.49094,0.717794 0.49094,1.1714l0 2.88532 1.69672 0c0.505284,0 0.934577,-0.185145 1.28768,-0.555538 0.353099,-0.370392 0.529699,-0.808129 0.529699,-1.31351l0 -0.861231 1.8776 0 0 0.861231c0,1.11403 -0.427767,2.03843 -1.2833,2.77342 0.401928,0.344553 0.716268,0.759401 0.943122,1.24464 0.226854,0.485142 0.340179,0.99185 0.340179,1.52012l0 0.818302 -1.8776 0z"/>
  <path id="123" class="fil3" d="M36.5921 97.4096c-0.32726,-0.327361 -0.49094,-0.717794 -0.49094,-1.1714l0 -5.65873c0.597246,0 1.0594,0.163579 1.38676,0.49094 0.32726,0.32726 0.49094,0.717692 0.49094,1.1713l0 5.65883c-0.597144,0 -1.0594,-0.163681 -1.38676,-0.49094z"/>
  <path id="1234" class="fil3" d="M46.4799 97.9006c-1.01637,0 -1.88624,-0.356049 -2.60984,-1.06804 -0.723491,-0.711996 -1.08524,-1.57333 -1.08524,-2.5839 0,-1.01057 0.361745,-1.87475 1.08524,-2.59254 0.723593,-0.717692 1.59347,-1.07659 2.60984,-1.07659l2.24799 0c0,0.579952 -0.155034,1.02491 -0.465101,1.33498 -0.310068,0.310068 -0.683308,0.465101 -1.11972,0.465101l-0.663166 0c-0.505386,0 -0.937425,0.185145 -1.29632,0.555538 -0.358897,0.370392 -0.538244,0.80823 -0.538244,1.31351 0,0.505284 0.179347,0.940274 0.538244,1.30487 0.358897,0.364594 0.790937,0.546891 1.29632,0.546891l0.663166 0c0.436414,0 0.809655,0.155034 1.11972,0.465101 0.310068,0.310068 0.465101,0.755128 0.465101,1.33508l-2.24799 0z"/>
  <path id="12345" class="fil3" d="M52.7329 97.9006c-1.01637,0 -1.88624,-0.356049 -2.60984,-1.06804 -0.723491,-0.711996 -1.08524,-1.57333 -1.08524,-2.5839 0,-1.01057 0.361745,-1.87475 1.08524,-2.59254 0.723593,-0.717692 1.59347,-1.07659 2.60984,-1.07659 1.01626,0 1.88767,0.358897 2.61401,1.07659 0.726339,0.717794 1.08951,1.58198 1.08951,2.59254 0,1.01057 -0.36317,1.8719 -1.08951,2.5839 -0.726339,0.711996 -1.59774,1.06804 -2.61401,1.06804zm0 -5.52099c-0.511082,0 -0.941698,0.183721 -1.29195,0.551265 -0.350352,0.367442 -0.525426,0.806705 -0.525426,1.31779 0,0.505284 0.1766,0.940274 0.529699,1.30487 0.353099,0.364594 0.78229,0.546891 1.28768,0.546891 0.505284,0 0.935899,-0.182297 1.29195,-0.546891 0.355947,-0.364594 0.533971,-0.799584 0.533971,-1.30487 0,-0.511082 -0.178024,-0.950345 -0.533971,-1.31779 -0.356049,-0.367544 -0.786664,-0.551265 -1.29195,-0.551265z"/>
  <path id="123456" class="fil3" d="M63.0513 97.4096c-0.32726,-0.327361 -0.49094,-0.717794 -0.49094,-1.1714l0 -1.9896c0,-0.505284 -0.1766,-0.943122 -0.529699,-1.31351 -0.353099,-0.370392 -0.782392,-0.555538 -1.28768,-0.555538 -0.505284,0 -0.935899,0.185145 -1.29195,0.555538 -0.355947,0.370392 -0.533971,0.80823 -0.533971,1.31351l0 1.9896c0,0.453606 -0.163681,0.844039 -0.49094,1.1714 -0.327361,0.32726 -0.789512,0.49094 -1.38676,0.49094l0 -3.65194c0,-1.01637 0.363271,-1.88197 1.08961,-2.59682 0.726339,-0.714946 1.59774,-1.07232 2.61401,-1.07232 1.01637,0 1.88624,0.358897 2.60974,1.07659 0.723491,0.717794 1.08524,1.58198 1.08524,2.59254l0 3.65194c-0.597144,0 -1.0594,-0.163681 -1.38666,-0.49094z"/>
  <path id="1234567" class="fil3" d="M70.6351 94.6707c-0.312916,0.310068 -0.687581,0.465101 -1.12399,0.465101l-1.14556 0c-0.252591,0 -0.465101,-0.0847396 -0.637327,-0.254117 -0.172226,-0.169377 -0.25839,-0.380463 -0.25839,-0.633055 0,-0.252693 0.0861638,-0.466525 0.25839,-0.641701 0.172226,-0.175074 0.384736,-0.262662 0.637327,-0.262662l2.73893 0c0,0.574154 -0.156458,1.01637 -0.469374,1.32643zm0.00427258 -2.75622c-0.310068,0.310068 -0.683308,0.465101 -1.11962,0.465101l-0.663268 0c-0.505284,0 -0.935899,0.182297 -1.29195,0.546891 -0.355947,0.364696 -0.533971,0.799584 -0.533971,1.30497l0 2.00679c0,0.453606 -0.163681,0.844039 -0.49094,1.1714 -0.327361,0.32726 -0.789512,0.49094 -1.38676,0.49094l0 -3.66913c0,-1.01067 0.363271,-1.8719 1.08961,-2.584 0.726339,-0.711996 1.59774,-1.06794 2.61401,-1.06794l2.24799 0c0,0.579952 -0.155034,1.02491 -0.465101,1.33498z"/>
  <path id="12345678" class="fil3" d="M76.9054 94.6707c-0.312916,0.310068 -0.687581,0.465101 -1.12399,0.465101l-1.14556 0c-0.252591,0 -0.465101,-0.0847396 -0.637327,-0.254117 -0.172226,-0.169377 -0.25839,-0.380463 -0.25839,-0.633055 0,-0.252693 0.0861638,-0.466525 0.25839,-0.641701 0.172226,-0.175074 0.384736,-0.262662 0.637327,-0.262662l2.73893 0c0,0.574154 -0.156458,1.01637 -0.469374,1.32643zm-1.78716 3.22987c-1.01637,0 -1.88624,-0.356049 -2.60984,-1.06804 -0.723491,-0.711996 -1.08524,-1.57333 -1.08524,-2.5839 0,-1.01057 0.361745,-1.87475 1.08524,-2.59254 0.723593,-0.717692 1.59347,-1.07659 2.60984,-1.07659l2.25653 0c0,0.579952 -0.156458,1.02491 -0.469374,1.33498 -0.312916,0.310068 -0.687581,0.465101 -1.12399,0.465101l-0.663166 0c-0.505386,0 -0.934577,0.185145 -1.28768,0.555538 -0.353099,0.370392 -0.529699,0.80823 -0.529699,1.31351 0,0.505284 0.1766,0.940274 0.529699,1.30487 0.353099,0.364594 0.78229,0.546891 1.28768,0.546891l0.663166 0c0.436414,0 0.811079,0.155034 1.12399,0.465101 0.312916,0.310068 0.469374,0.755128 0.469374,1.33508l-2.25653 0z"/>
  <path id="123456789" class="fil3" d="M83.5934 91.9145c-0.310068,0.310068 -0.683308,0.465101 -1.11972,0.465101l-0.663166 0c-0.505284,0 -0.936001,0.182297 -1.29195,0.546891 -0.356049,0.364696 -0.533971,0.799584 -0.533971,1.30497l0 2.00679c0,0.453606 -0.163681,0.844039 -0.491042,1.1714 -0.32726,0.32726 -0.789512,0.49094 -1.38666,0.49094l0 -3.66913c0,-1.01067 0.36317,-1.8719 1.08951,-2.584 0.726441,-0.711996 1.59774,-1.06794 2.61411,-1.06794l2.24799 0c0,0.579952 -0.155034,1.02491 -0.465101,1.33498z"/>
  <path id="12345678910" class="fil3" d="M88.6708 94.6707c-0.312916,0.310068 -0.687581,0.465101 -1.12399,0.465101l-1.14556 0c-0.252591,0 -0.465101,-0.0847396 -0.637327,-0.254117 -0.172226,-0.169377 -0.25839,-0.380463 -0.25839,-0.633055 0,-0.252693 0.0861638,-0.466525 0.25839,-0.641701 0.172226,-0.175074 0.384736,-0.262662 0.637327,-0.262662l2.73893 0c0,0.574154 -0.156458,1.01637 -0.469374,1.32643zm-1.78716 3.22987c-1.01637,0 -1.88624,-0.356049 -2.60984,-1.06804 -0.723491,-0.711996 -1.08524,-1.57333 -1.08524,-2.5839 0,-1.01057 0.361745,-1.87475 1.08524,-2.59254 0.723593,-0.717692 1.59347,-1.07659 2.60984,-1.07659l2.25653 0c0,0.579952 -0.156458,1.02491 -0.469374,1.33498 -0.312916,0.310068 -0.687581,0.465101 -1.12399,0.465101l-0.663166 0c-0.505386,0 -0.934577,0.185145 -1.28768,0.555538 -0.353099,0.370392 -0.529699,0.80823 -0.529699,1.31351 0,0.505284 0.1766,0.940274 0.529699,1.30487 0.353099,0.364594 0.78229,0.546891 1.28768,0.546891l0.663166 0c0.436414,0 0.811079,0.155034 1.12399,0.465101 0.312916,0.310068 0.469374,0.755128 0.469374,1.33508l-2.25653 0z"/>
  <path id="1234567891011" class="fil3" d="M95.7464 97.4096c-0.32726,-0.327361 -0.49094,-0.717794 -0.49094,-1.1714l0 -1.9896c0,-0.505284 -0.1766,-0.943122 -0.529699,-1.31351 -0.353099,-0.370392 -0.782392,-0.555538 -1.28768,-0.555538 -0.505284,0 -0.935899,0.185145 -1.29195,0.555538 -0.355947,0.370392 -0.533971,0.80823 -0.533971,1.31351l0 1.9896c0,0.453606 -0.163681,0.844039 -0.49094,1.1714 -0.327361,0.32726 -0.789512,0.49094 -1.38676,0.49094l0 -3.65194c0,-1.01637 0.363271,-1.88197 1.08961,-2.59682 0.726339,-0.714946 1.59774,-1.07232 2.61401,-1.07232 1.01637,0 1.88624,0.358897 2.60974,1.07659 0.723491,0.717794 1.08524,1.58198 1.08524,2.59254l0 3.65194c-0.597144,0 -1.0594,-0.163681 -1.38666,-0.49094z"/>
  <path id="123456789101112" class="fil3" d="M101.543 97.9006c-1.01637,0 -1.88624,-0.356049 -2.60984,-1.06804 -0.723491,-0.711996 -1.08524,-1.57333 -1.08524,-2.5839 0,-1.01057 0.361745,-1.87475 1.08524,-2.59254 0.723593,-0.717692 1.59347,-1.07659 2.60984,-1.07659l2.24799 0c0,0.579952 -0.155034,1.02491 -0.465101,1.33498 -0.310068,0.310068 -0.683308,0.465101 -1.11972,0.465101l-0.663166 0c-0.505386,0 -0.937425,0.185145 -1.29632,0.555538 -0.358897,0.370392 -0.538244,0.80823 -0.538244,1.31351 0,0.505284 0.179347,0.940274 0.538244,1.30487 0.358897,0.364594 0.790937,0.546891 1.29632,0.546891l0.663166 0c0.436414,0 0.809655,0.155034 1.11972,0.465101 0.310068,0.310068 0.465101,0.755128 0.465101,1.33508l-2.24799 0z"/>
  <path id="12345678910111213" class="fil3" d="M109.583 94.6707c-0.312916,0.310068 -0.687581,0.465101 -1.12399,0.465101l-1.14556 0c-0.252591,0 -0.465101,-0.0847396 -0.637327,-0.254117 -0.172226,-0.169377 -0.25839,-0.380463 -0.25839,-0.633055 0,-0.252693 0.0861638,-0.466525 0.25839,-0.641701 0.172226,-0.175074 0.384736,-0.262662 0.637327,-0.262662l2.73893 0c0,0.574154 -0.156458,1.01637 -0.469374,1.32643zm-1.78716 3.22987c-1.01637,0 -1.88624,-0.356049 -2.60984,-1.06804 -0.723491,-0.711996 -1.08524,-1.57333 -1.08524,-2.5839 0,-1.01057 0.361745,-1.87475 1.08524,-2.59254 0.723593,-0.717692 1.59347,-1.07659 2.60984,-1.07659l2.25653 0c0,0.579952 -0.156458,1.02491 -0.469374,1.33498 -0.312916,0.310068 -0.687581,0.465101 -1.12399,0.465101l-0.663166 0c-0.505386,0 -0.934577,0.185145 -1.28768,0.555538 -0.353099,0.370392 -0.529699,0.80823 -0.529699,1.31351 0,0.505284 0.1766,0.940274 0.529699,1.30487 0.353099,0.364594 0.78229,0.546891 1.28768,0.546891l0.663166 0c0.436414,0 0.811079,0.155034 1.12399,0.465101 0.312916,0.310068 0.469374,0.755128 0.469374,1.33508l-2.25653 0z"/>
  <path id="1234567891011121314" class="fil3" d="M115.194 97.4096c-0.32726,-0.327361 -0.49094,-0.717794 -0.49094,-1.1714l0 -5.65873c0.597246,0 1.0594,0.163579 1.38676,0.49094 0.32726,0.32726 0.49094,0.717692 0.49094,1.1713l0 5.65883c-0.597144,0 -1.0594,-0.163681 -1.38676,-0.49094z"/>
  <path id="123456789101112131415" class="fil3" d="M123.342 97.4096c-0.32726,-0.327361 -0.49094,-0.717794 -0.49094,-1.1714l0 -1.9896c0,-0.505284 -0.1766,-0.943122 -0.529699,-1.31351 -0.353099,-0.370392 -0.782392,-0.555538 -1.28768,-0.555538 -0.505284,0 -0.935899,0.185145 -1.29195,0.555538 -0.355947,0.370392 -0.533971,0.80823 -0.533971,1.31351l0 1.9896c0,0.453606 -0.163681,0.844039 -0.49094,1.1714 -0.327361,0.32726 -0.789512,0.49094 -1.38676,0.49094l0 -3.65194c0,-1.01637 0.363271,-1.88197 1.08961,-2.59682 0.726339,-0.714946 1.59774,-1.07232 2.61401,-1.07232 1.01637,0 1.88624,0.358897 2.60974,1.07659 0.723491,0.717794 1.08524,1.58198 1.08524,2.59254l0 3.65194c-0.597144,0 -1.0594,-0.163681 -1.38666,-0.49094z"/>
  <path id="12345678910111213141516" class="fil3" d="M129.147 97.9006l-3.70362 0 0 -3.65194c0,-1.01057 0.363271,-1.87475 1.08961,-2.59254 0.726339,-0.717692 1.59774,-1.07659 2.61401,-1.07659 1.01637,0 1.88919,0.358897 2.61838,1.07659 0.729188,0.717794 1.09388,1.58198 1.09388,2.59254 0,1.01637 -0.364696,1.87902 -1.09388,2.58817 -0.729188,0.709147 -1.60202,1.06377 -2.61838,1.06377zm0 -5.52099c-0.510981,0 -0.941698,0.183721 -1.29195,0.551265 -0.35025,0.367442 -0.525324,0.806705 -0.525324,1.31779l0 1.85176 1.81727 0c0.505284,0 0.934577,-0.182297 1.28768,-0.546891 0.353099,-0.364594 0.529699,-0.799584 0.529699,-1.30487 0,-0.511082 -0.175176,-0.950345 -0.525426,-1.31779 -0.35025,-0.367544 -0.780866,-0.551265 -1.29195,-0.551265z"/>
  <path id="1234567891011121314151617" class="fil3" d="M133.954 97.4096c-0.32726,-0.327361 -0.49094,-0.717794 -0.49094,-1.1714l0 -5.65873c0.597246,0 1.0594,0.163579 1.38676,0.49094 0.32726,0.32726 0.49094,0.717692 0.49094,1.1713l0 5.65883c-0.597144,0 -1.0594,-0.163681 -1.38676,-0.49094z"/>
  <path id="123456789101112131415161718" class="fil3" d="M139.793 97.9006c-1.01626,0 -1.88767,-0.356049 -2.61401,-1.06804 -0.726339,-0.711996 -1.08961,-1.57333 -1.08961,-2.5839 0,-1.01057 0.363271,-1.87475 1.08961,-2.59254 0.726339,-0.717692 1.59774,-1.07659 2.61401,-1.07659 1.01637,0 1.88919,0.358897 2.61838,1.07659 0.729188,0.717794 1.09388,1.58198 1.09388,2.59254l0 3.65194 -3.71227 0zm1.81737 -3.65194c0,-0.511082 -0.175176,-0.950345 -0.525426,-1.31779 -0.35025,-0.367544 -0.780866,-0.551265 -1.29195,-0.551265 -0.510981,0 -0.941698,0.183721 -1.29195,0.551265 -0.35025,0.367442 -0.525324,0.806705 -0.525324,1.31779 0,0.505284 0.176498,0.940274 0.529699,1.30487 0.353099,0.364594 0.78229,0.546891 1.28757,0.546891l1.81737 0 0 -1.85176z"/>
 </g>
</svg>
